<svg xmlns="http://www.w3.org/2000/svg" xmlns:xlink="http://www.w3.org/1999/xlink" width="1000" height="345" viewBox="0 0 1000 345">
  <defs>
    <polygon id="bgpattern-a" points=".652 345.778 .652 .985 1003.206 .985 1003.206 345.778"/>
    <linearGradient id="bgpattern-b" x1="81.754%" x2="81.754%" y1="100%" y2="0%">
      <stop offset="0%" stop-color="#FFF" stop-opacity=".2"/>
      <stop offset="100%" stop-color="#FFF" stop-opacity="0"/>
    </linearGradient>
  </defs>
  <g fill="none" fill-rule="evenodd" transform="translate(-1 -1)">
    <mask id="bgpattern-c" fill="#fff">
      <use xlink:href="#bgpattern-a"/>
    </mask>
    <path stroke="url(#bgpattern-b)" d="M0.651922857,13.6158736 L26.8737571,29.9768608 L0.651922857,36.684304 L0.651922857,13.6158736 Z M97.7839771,11.8439487 L129.499463,28.6072261 L56.7011114,48.5916683 L26.8737571,29.9768608 L97.7839771,11.8439487 Z M195.034129,10.6036723 L231.347577,27.2304837 L164.46262,47.0741955 L129.499463,28.6072261 L195.034129,10.6036723 Z M291.579966,9.3804541 L332.429483,25.8793287 L271.36828,45.5631194 L231.347577,27.2304837 L291.579966,9.3804541 Z M387.438563,8.14870681 L432.748737,24.5338598 L377.423783,44.0612833 L332.429483,25.8793287 L387.438563,8.14870681 Z M482.612054,6.93401777 L532.319569,23.1962093 L482.648337,42.5793485 L432.748737,24.5338598 L482.612054,6.93401777 Z M577.104709,5.72075025 L631.141977,21.8692201 L587.033406,41.105232 L532.319569,23.1962093 L577.104709,5.72075025 Z M670.930043,4.52525173 L729.242286,20.5592892 L690.613137,39.6453307 L631.141977,21.8692201 L670.930043,4.52525173 Z M764.095171,3.33899309 L826.601286,19.2536229 L793.370457,38.1889832 L729.242286,20.5592892 L764.095171,3.33899309 Z M856.588,2.15202369 L923.241743,17.9493781 L895.339514,36.752537 L826.601286,19.2536229 L856.588,2.15202369 Z M1010.81149,14.8092399 L1010.81149,23.56154 L996.526,35.3246199 L923.241743,17.9493781 L948.447657,0.984955577 L1010.81149,14.8092399 Z M0.651922857,63.9831787 L0.651922857,36.684304 L26.8737571,29.9768608 L56.7011114,48.5916683 L0.651922857,63.9831787 Z M129.499463,28.6072261 L164.46262,47.0741955 L89.7661771,69.2200592 L56.7011114,48.5916683 L129.499463,28.6072261 Z M231.347577,27.2304837 L271.36828,45.5631194 L203.202751,67.5327147 L164.46262,47.0741955 L231.347577,27.2304837 Z M332.429483,25.8793287 L377.423783,44.0612833 L315.693126,65.8531885 L271.36828,45.5631194 L332.429483,25.8793287 Z M432.748737,24.5338598 L482.648337,42.5793485 L427.241569,64.1935637 L377.423783,44.0612833 L432.748737,24.5338598 Z M532.319569,23.1962093 L587.033406,41.105232 L537.863731,62.5403356 L482.648337,42.5793485 L532.319569,23.1962093 Z M631.141977,21.8692201 L690.613137,39.6453307 L647.565306,60.9112734 L587.033406,41.105232 L631.141977,21.8692201 Z M729.242286,20.5592892 L793.370457,38.1889832 L756.369057,59.282922 L690.613137,39.6453307 L729.242286,20.5592892 Z M826.601286,19.2536229 L895.339514,36.752537 L864.264314,57.6815795 L793.370457,38.1889832 L826.601286,19.2536229 Z M923.241743,17.9493781 L996.526,35.3246199 L971.284514,56.088766 L895.339514,36.752537 L923.241743,17.9493781 Z M1010.81149,23.56154 L1010.81149,38.7099704 L996.526,35.3246199 L1010.81149,23.56154 Z M56.7011114,48.5916683 L89.7661771,69.2200592 L5.78772571,94.124383 L0.651922857,90.210227 L0.651922857,63.9831787 L56.7011114,48.5916683 Z M164.46262,47.0741955 L203.202751,67.5327147 L126.618177,92.2266535 L89.7661771,69.2200592 L164.46262,47.0741955 Z M271.36828,45.5631194 L315.693126,65.8531885 L246.3637,90.3282132 L203.202751,67.5327147 L271.36828,45.5631194 Z M377.423783,44.0612833 L427.241569,64.1935637 L365.051329,88.453228 L315.693126,65.8531885 L377.423783,44.0612833 Z M482.648337,42.5793485 L537.863731,62.5403356 L482.693869,86.604541 L427.241569,64.1935637 L482.648337,42.5793485 Z M587.033406,41.105232 L647.565306,60.9112734 L599.294877,84.76154 L537.863731,62.5403356 L587.033406,41.105232 Z M690.613137,39.6453307 L756.369057,59.282922 L714.882811,82.9455479 L647.565306,60.9112734 L690.613137,39.6453307 Z M793.370457,38.1889832 L864.264314,57.6815795 L829.461229,81.128845 L756.369057,59.282922 L793.370457,38.1889832 Z M895.339514,36.752537 L971.284514,56.088766 L943.0408,79.3419941 L864.264314,57.6815795 L895.339514,36.752537 Z M1010.81149,38.7099704 L1010.81149,66.145311 L971.284514,56.088766 L996.526,35.3246199 L1010.81149,38.7099704 Z M89.7661771,69.2200592 L126.618177,92.2266535 L39.9370086,120.154551 L5.78772571,94.124383 L89.7661771,69.2200592 Z M203.202751,67.5327147 L246.3637,90.3282132 L167.946486,118.016584 L126.618177,92.2266535 L203.202751,67.5327147 Z M315.693126,65.8531885 L365.051329,88.453228 L294.74938,115.884304 L246.3637,90.3282132 L315.693126,65.8531885 Z M427.241569,64.1935637 L482.693869,86.604541 L420.354229,113.77619 L365.051329,88.453228 L427.241569,64.1935637 Z M537.863731,62.5403356 L599.294877,84.76154 L544.788066,111.69153 L482.693869,86.604541 L537.863731,62.5403356 Z M647.565306,60.9112734 L714.882811,82.9455479 L668.061563,109.628193 L599.294877,84.76154 L647.565306,60.9112734 Z M756.369057,59.282922 L829.461229,81.128845 L790.190371,107.579783 L714.882811,82.9455479 L756.369057,59.282922 Z M864.264314,57.6815795 L943.0408,79.3419941 L911.190143,105.558381 L829.461229,81.128845 L864.264314,57.6815795 Z M1010.81149,66.145311 L1010.81149,97.9710168 L943.0408,79.3419941 L971.284514,56.088766 L1010.81149,66.145311 Z M0.651922857,132.821007 L0.651922857,95.6489635 L5.78772571,94.124383 L39.9370086,120.154551 L0.651922857,132.821007 Z M126.618177,92.2266535 L167.946486,118.016584 L78.5270286,149.58002 L39.9370086,120.154551 L126.618177,92.2266535 Z M246.3637,90.3282132 L294.74938,115.884304 L214.633274,147.148509 L167.946486,118.016584 L246.3637,90.3282132 Z M365.051329,88.453228 L420.354229,113.77619 L349.361483,144.730503 L294.74938,115.884304 L365.051329,88.453228 Z M482.693869,86.604541 L544.788066,111.69153 L482.748649,142.349457 L420.354229,113.77619 L482.693869,86.604541 Z M599.294877,84.76154 L668.061563,109.628193 L614.801174,139.983337 L544.788066,111.69153 L599.294877,84.76154 Z M714.882811,82.9455479 L790.190371,107.579783 L745.555343,137.657019 L668.061563,109.628193 L714.882811,82.9455479 Z M829.461229,81.128845 L911.190143,105.558381 L875.014,135.340652 L790.190371,107.579783 L829.461229,81.128845 Z M1010.81149,97.9710168 L1010.81149,135.32075 L1003.20631,133.039921 L911.190143,105.558381 L943.0408,79.3419941 L1010.81149,97.9710168 Z M0.651922857,177.066535 L0.651922857,132.821007 L39.9370086,120.154551 L78.5270286,149.58002 L0.651922857,177.066535 Z M167.946486,118.016584 L214.633274,147.148509 L122.495449,183.089516 L78.5270286,149.58002 L167.946486,118.016584 Z M294.74938,115.884304 L349.361483,144.730503 L267.778411,180.305469 L214.633274,147.148509 L294.74938,115.884304 Z M420.354229,113.77619 L482.748649,142.349457 L411.498366,177.549852 L349.361483,144.730503 L420.354229,113.77619 Z M544.788066,111.69153 L614.801174,139.983337 L553.68448,174.830484 L482.748649,142.349457 L544.788066,111.69153 Z M668.061563,109.628193 L745.555343,137.657019 L694.358097,172.142389 L614.801174,139.983337 L668.061563,109.628193 Z M790.190371,107.579783 L875.014,135.340652 L833.544829,169.46922 L745.555343,137.657019 L790.190371,107.579783 Z M911.190143,105.558381 L1003.20631,133.039921 L971.256057,166.8323 L875.014,135.340652 L911.190143,105.558381 Z M78.5270286,149.58002 L122.495449,183.089516 L15.4126429,224.865153 L0.651922857,210.410424 L0.651922857,177.066535 L78.5270286,149.58002 Z M214.633274,147.148509 L267.778411,180.305469 L173.037469,221.616269 L122.495449,183.089516 L214.633274,147.148509 Z M349.361483,144.730503 L411.498366,177.549852 L328.831077,218.403633 L267.778411,180.305469 L349.361483,144.730503 Z M482.748649,142.349457 L553.68448,174.830484 L482.821926,215.220138 L411.498366,177.549852 L482.748649,142.349457 Z M614.801174,139.983337 L694.358097,172.142389 L635.051277,212.080711 L553.68448,174.830484 L614.801174,139.983337 Z M745.555343,137.657019 L833.544829,169.46922 L785.537629,208.987483 L694.358097,172.142389 L745.555343,137.657019 Z M875.014,135.340652 L971.256057,166.8323 L934.3258,205.912024 L833.544829,169.46922 L875.014,135.340652 Z M1010.81149,135.32075 L1010.81149,179.777374 L971.256057,166.8323 L1003.20631,133.039921 L1010.81149,135.32075 Z M0.651922857,210.410424 L15.4126429,224.865153 L0.651922857,230.623731 L0.651922857,210.410424 Z M122.495449,183.089516 L173.037469,221.616269 L61.6768429,270.169003 L15.4126429,224.865153 L122.495449,183.089516 Z M267.778411,180.305469 L328.831077,218.403633 L231.748823,266.372833 L173.037469,221.616269 L267.778411,180.305469 Z M411.498366,177.549852 L482.821926,215.220138 L399.683671,262.622863 L328.831077,218.403633 L411.498366,177.549852 Z M553.68448,174.830484 L635.051277,212.080711 L565.5319,258.91767 L482.821926,215.220138 L553.68448,174.830484 Z M694.358097,172.142389 L785.537629,208.987483 L729.320543,255.262942 L635.051277,212.080711 L694.358097,172.142389 Z M833.544829,169.46922 L934.3258,205.912024 L891.0994,251.644462 L785.537629,208.987483 L833.544829,169.46922 Z M1010.81149,179.777374 L1010.81149,233.570543 L934.3258,205.912024 L971.256057,166.8323 L1010.81149,179.777374 Z M0.651922857,296.779862 L0.651922857,230.623731 L15.4126429,224.865153 L61.6768429,270.169003 L0.651922857,296.779862 Z M173.037469,221.616269 L231.748823,266.372833 L116.133854,323.503021 L61.6768429,270.169003 L173.037469,221.616269 Z M328.831077,218.403633 L399.683671,262.622863 L300.786563,318.99538 L231.748823,266.372833 L328.831077,218.403633 Z M482.821926,215.220138 L565.5319,258.91767 L482.922237,314.560237 L399.683671,262.622863 L482.821926,215.220138 Z M635.051277,212.080711 L729.320543,255.262942 L662.589966,310.184798 L565.5319,258.91767 L635.051277,212.080711 Z M785.537629,208.987483 L891.0994,251.644462 L839.848086,305.863376 L729.320543,255.262942 L785.537629,208.987483 Z M1010.81149,233.570543 L1010.81149,300.018796 L891.0994,251.644462 L934.3258,205.912024 L1010.81149,233.570543 Z M0.651922857,380.564265 L0.651922857,296.779862 L61.6768429,270.169003 L116.133854,323.503021 L0.651922857,380.564265 Z M231.748823,266.372833 L300.786563,318.99538 L181.17052,387.188549 L116.133854,323.503021 L231.748823,266.372833 Z M399.683671,262.622863 L482.922237,314.560237 L383.135131,381.779664 L300.786563,318.99538 L399.683671,262.622863 Z M565.5319,258.91767 L662.589966,310.184798 L582.0904,376.448963 L482.922237,314.560237 L565.5319,258.91767 Z M729.320543,255.262942 L839.848086,305.863376 L778.1032,371.196446 L662.589966,310.184798 L729.320543,255.262942 Z M1010.81149,300.018796 L1010.81149,307.40999 L971.213371,366.015005 L839.848086,305.863376 L891.0994,251.644462 L1010.81149,300.018796 Z M284.307031,448.349457 L243.632526,448.349457 L181.17052,387.188549 L300.786563,318.99538 L383.135131,381.779664 L284.307031,448.349457 Z M494.742623,448.349457 L470.470814,448.349457 L383.135131,381.779664 L482.922237,314.560237 L582.0904,376.448963 L494.742623,448.349457 Z M705.163274,448.349457 L697.31764,448.349457 L582.0904,376.448963 L662.589966,310.184798 L778.1032,371.196446 L705.163274,448.349457 Z M839.848086,305.863376 L971.213371,366.015005 L917.849114,445.001777 L778.1032,371.196446 L839.848086,305.863376 Z M1010.81149,307.40999 L1010.81149,384.146496 L971.213371,366.015005 L1010.81149,307.40999 Z" mask="url(#bgpattern-c)"/>
  </g>
</svg>
