<svg xmlns="http://www.w3.org/2000/svg" width="14" height="12" viewBox="0 0 14 12">
  <path fill="#FFF" fill-rule="evenodd" d="M534.981445,19.171875 C535.624023,19.9853516 536,20.9697266 536,22.1044922 C536,26.2060547 533.375,27.6621094 529,27.6621094 C524.625,27.6621094 522,26.2060547 522,22.125 C522,20.9902344 522.375977,19.9853516 523.018555,19.1923828 C522.875,18.4130859 522.731445,17.0664062 523.168945,16 C524.542969,16.109375 525.616211,16.7587891 526.210938,17.2304688 C527.058594,17.0048828 527.995117,16.875 529,16.875 C530.004883,16.875 530.941406,17.0048828 531.768555,17.2304688 C532.383789,16.7587891 533.457031,16.109375 534.831055,16 C535.268555,17.0527344 535.125,18.4130859 534.981445,19.171875 Z M529,26.7871094 C532.793945,26.7871094 534.154297,25.625 534.154297,23.875 C534.154297,21.8310547 532.5,21.3935547 531.625,21.3935547 C530.75,21.3935547 530.75,21.5371094 529,21.5371094 C527.25,21.5371094 527.25,21.3935547 526.375,21.3935547 C525.5,21.3935547 523.845703,21.8310547 523.845703,23.875 C523.845703,25.625 525.206055,26.7871094 529,26.7871094 Z M531.918945,24.0185547 C531.918945,25.0371094 531.59082,25.3310547 531.1875,25.3310547 C530.78418,25.3310547 530.456055,25.0371094 530.456055,24.0185547 C530.456055,23 530.78418,22.7060547 531.1875,22.7060547 C531.59082,22.7060547 531.918945,23 531.918945,24.0185547 Z M527.543945,24.0185547 C527.543945,25.0371094 527.21582,25.3310547 526.8125,25.3310547 C526.40918,25.3310547 526.081055,25.0371094 526.081055,24.0185547 C526.081055,23 526.40918,22.7060547 526.8125,22.7060547 C527.21582,22.7060547 527.543945,23 527.543945,24.0185547 Z" transform="translate(-522 -16)"/>
</svg>
