<svg xmlns="http://www.w3.org/2000/svg" width="98" height="20" viewBox="0 0 98 20">
  <defs>
    <linearGradient id="logo-a" x1="0%" y1="0%" y2="100%">
      <stop offset="0%" stop-color="#D7226C"/>
      <stop offset="100%" stop-color="#32B5F5"/>
    </linearGradient>
  </defs>
  <g fill="none" fill-rule="evenodd">
    <g transform="translate(60)">
      <rect width="38" height="20" fill="url(#logo-a)" rx="4"/>
      <path fill="#FEFEFE" d="M5,5 L9.14257812,5 C10.6145907,5 11.7516236,5.42154526 12.5537109,6.26464844 C13.3557983,7.10775161 13.7568359,8.29947146 13.7568359,9.83984375 C13.7568359,11.4622477 13.3592162,12.7063759 12.5639648,13.5722656 C11.7687135,14.4381554 10.6282626,14.8710938 9.14257812,14.8710938 L5,14.8710938 L5,5 Z M7.50878906,7.01660156 L7.50878906,12.8544922 L8.69140625,12.8544922 C9.50260822,12.8544922 10.123533,12.6038437 10.5541992,12.1025391 C10.9848654,11.6012345 11.2001953,10.8629606 11.2001953,9.88769531 C11.2001953,8.96711779 10.9791689,8.25846603 10.5371094,7.76171875 C10.0950499,7.26497147 9.47982165,7.01660156 8.69140625,7.01660156 L7.50878906,7.01660156 Z M22.2265625,12.8544922 L17.9746094,12.8544922 L17.9746094,10.8378906 L21.9736328,10.8378906 L21.9736328,8.9921875 L17.9746094,8.9921875 L17.9746094,7.0234375 L22.2265625,7.0234375 L22.2265625,5.00683594 L15.4658203,5.00683594 L15.4658203,14.8710938 L22.2265625,14.8710938 L22.2265625,12.8544922 Z M29.9033203,14.8710938 L33.0068359,5.00683594 L30.2929688,5.00683594 L28.4609375,12.2666016 L28.3242188,12.2666016 L26.4306641,5.00683594 L23.5527344,5.00683594 L26.7314453,14.8710938 L29.9033203,14.8710938 Z"/>
    </g>
    <path fill="#FEFEFE" d="M10.390625,17 L10.2246094,16.4824219 C10.1139317,16.1373681 9.99023506,15.7402366 9.85351562,15.2910156 C9.71679619,14.8417946 9.59309951,14.4446632 9.48242188,14.0996094 L9.31640625,13.5820312 L4.36523438,13.5820312 L3.29101562,17 L0.263671875,17 L5.15625,2.90820312 L8.62304688,2.90820312 L13.5253906,17 L10.390625,17 Z M6.80664062,5.60351562 L6.62597656,6.18945312 C6.50553325,6.58008008 6.35579517,7.06184609 6.17675781,7.63476562 L5.63964844,9.35351562 C5.46061108,9.92643516 5.30924541,10.4065736 5.18554688,10.7939453 L5,11.375 L8.68164062,11.375 L6.875,5.60351562 L6.80664062,5.60351562 Z M18.2714844,5.22265625 L18.2714844,9.70507813 L20.859375,9.70507813 C21.6015662,9.70507813 22.1793599,9.5065124 22.5927734,9.109375 C23.006187,8.7122376 23.2128906,8.16536807 23.2128906,7.46875 C23.2128906,6.78515283 22.998049,6.23991089 22.5683594,5.83300781 C22.1386697,5.42610474 21.5592484,5.22265625 20.8300781,5.22265625 L18.2714844,5.22265625 Z M18.2714844,11.8535156 L18.2714844,17 L15.3222656,17 L15.3222656,2.90820312 L21.1425781,2.90820312 C22.76368,2.90820312 24.0185502,3.31021733 24.9072266,4.11425781 C25.7959029,4.91829829 26.2402344,6.01366494 26.2402344,7.40039062 C26.2402344,8.30534307 26.0172548,9.1207646 25.5712891,9.84667969 C25.1253233,10.5725948 24.4954468,11.0917953 23.6816406,11.4042969 L26.6503906,17 L23.3007812,17 L20.6835938,11.8535156 L18.2714844,11.8535156 Z M31.484375,17 L31.484375,12.6933594 L32.8027344,11.1113281 L36.9726562,17 L40.5078125,17 L34.9316406,9.15820312 L40.1464844,2.90820312 L36.8652344,2.90820312 L31.5722656,9.33398438 L31.484375,9.33398438 L31.484375,2.90820312 L28.5351562,2.90820312 L28.5351562,17 L31.484375,17 Z M41.953125,17 L44.8046875,17 L44.8046875,6.24804687 L41.953125,6.24804687 L41.953125,17 Z M43.3789062,5.07617188 C43.8085959,5.07617188 44.1731756,4.93457173 44.4726562,4.65136719 C44.7721369,4.36816265 44.921875,4.0117209 44.921875,3.58203125 C44.921875,3.15885205 44.7721369,2.80566548 44.4726562,2.52246094 C44.1731756,2.2392564 43.8085959,2.09765625 43.3789062,2.09765625 C42.9557271,2.09765625 42.592775,2.2392564 42.2900391,2.52246094 C41.9873032,2.80566548 41.8359375,3.15885205 41.8359375,3.58203125 C41.8359375,4.0117209 41.9873032,4.36816265 42.2900391,4.65136719 C42.592775,4.93457173 42.9557271,5.07617188 43.3789062,5.07617188 Z M47.9101562,3.85546875 L47.9101562,6.24804688 L46.4550781,6.24804688 L46.4550781,8.40625 L47.9101562,8.40625 L47.9101562,14.0996094 C47.9101562,15.1477917 48.1770807,15.8997373 48.7109375,16.3554688 C49.2447943,16.8112002 50.1334573,17.0390625 51.3769531,17.0390625 C51.6699233,17.0390625 51.9352202,17.0276694 52.1728516,17.0048828 C52.410483,16.9820962 52.6041659,16.9544272 52.7539062,16.921875 L52.7539062,14.8125 C52.66276,14.8255209 52.552084,14.836914 52.421875,14.8466797 C52.291666,14.8564454 52.1647142,14.8613281 52.0410156,14.8613281 C51.6048155,14.8613281 51.2825531,14.7587901 51.0742188,14.5537109 C50.8658844,14.3486318 50.7617188,14.0410177 50.7617188,13.6308594 L50.7617188,8.40625 L52.7539062,8.40625 L52.7539062,6.24804688 L50.7617188,6.24804688 L50.7617188,3.85546875 L47.9101562,3.85546875 Z"/>
  </g>
</svg>
