<svg xmlns="http://www.w3.org/2000/svg" width="14" height="12" viewBox="0 0 14 12">
  <path fill="#FFF" fill-rule="evenodd" d="M846,115.508789 C845.480469,115.741211 844.933594,115.898438 844.345703,115.966797 C844.947266,115.611328 845.398438,115.043945 845.610352,114.374023 C845.063477,114.702148 844.441406,114.941406 843.798828,115.071289 C843.258789,114.524414 842.513672,114.168945 841.686523,114.168945 C840.100586,114.168945 838.822266,115.447266 838.822266,117.033203 C838.822266,117.258789 838.835938,117.491211 838.883789,117.696289 C836.504883,117.566406 834.399414,116.486328 832.970703,114.75 C832.731445,115.173828 832.581055,115.611328 832.581055,116.144531 C832.581055,117.128906 833.086914,118.003906 833.866211,118.523438 C833.394531,118.509766 832.957031,118.379883 832.567383,118.167969 L832.567383,118.202148 C832.567383,119.59668 833.558594,120.758789 834.871094,121.018555 C834.625,121.086914 834.365234,121.121094 834.105469,121.121094 C833.927734,121.121094 833.75,121.100586 833.572266,121.066406 C833.927734,122.201172 835.000977,123.048828 836.245117,123.0625 C835.274414,123.841797 834.023438,124.422852 832.683594,124.422852 C832.451172,124.422852 832.225586,124.40918 832,124.375 C833.264648,125.188477 834.789062,125.543945 836.40918,125.543945 C841.686523,125.543945 844.571289,121.168945 844.571289,117.375 L844.571289,116.999023 C845.125,116.595703 845.610352,116.09668 846,115.508789 Z" transform="translate(-832 -114)"/>
</svg>
