<svg xmlns="http://www.w3.org/2000/svg" width="14" height="10" viewBox="0 0 14 10">
  <path fill="#FFF" fill-rule="evenodd" d="M593.950439,21.5048828 C594.011963,21.6074219 594.011963,21.7304688 593.950439,21.8330078 C593.950439,21.8330078 590.935791,26.3378906 586.998291,26.3378906 C583.060791,26.3378906 580.046143,21.8330078 580.046143,21.8330078 C579.984619,21.7304688 579.984619,21.6074219 580.046143,21.5048828 C580.046143,21.5048828 583.060791,17 586.998291,17 C590.935791,17 593.91626,21.4570312 593.91626,21.4570312 L593.950439,21.5048828 Z M586.998291,24.2939453 C588.440674,24.2939453 589.623291,23.125 589.623291,21.6689453 C589.623291,20.2265625 588.440674,19.0439453 586.998291,19.0439453 C585.542236,19.0439453 584.373291,20.2265625 584.373291,21.6689453 C584.373291,23.125 585.542236,24.2939453 586.998291,24.2939453 Z" transform="translate(-580 -17)"/>
</svg>
